<svg viewBox="0 0 100 100" xmlns="http://www.w3.org/2000/svg" class="grow"><defs><clipPath id="uusdt-d_svg__a"><path d="M1920 0v11288H0V0h1920z"></path></clipPath><clipPath id="uusdt-d_svg__b"><path d="M50 0c27.614 0 50 22.386 50 50s-22.386 50-50 50S0 77.614 0 50 22.386 0 50 0z"></path></clipPath><clipPath id="uusdt-d_svg__c"><path d="M54.882 0v11.624H37.439v7.615c14.15.656 24.782 3.458 24.782 6.822 0 3.363-10.642 6.168-24.784 6.818v24.434H24.834V32.89C10.661 32.234 0 29.432 0 26.066c0-3.366 10.66-6.174 24.834-6.824v-7.618H7.394V0h47.488zM24.834 20.116c-12.526.56-21.873 2.737-21.873 5.347 0 2.61 9.35 4.792 21.873 5.342l.096.005c.884.042 3.132.132 6.254.132 4.077 0 5.903-.11 6.255-.137l-.013-.002c12.503-.556 21.827-2.735 21.827-5.34s-9.33-4.784-21.827-5.342v8.516c-.35.031-2.297.195-6.187.195l-.356-.001a93.85 93.85 0 0 1-6.049-.197z"></path></clipPath><clipPath id="uusdt-d_svg__d"><path d="M15.016 0c8.293 0 15.016 6.723 15.016 15.016s-6.723 15.016-15.016 15.016S0 23.309 0 15.016 6.723 0 15.016 0z"></path></clipPath><clipPath id="uusdt-d_svg__e"><path d="m11.724 0 2.223 2.21-5.86 5.83c-.31.305-.716.457-1.116.457-.4 0-.803-.152-1.11-.458L0 2.211 2.224 0l4.75 4.724L11.724 0z"></path></clipPath><clipPath id="uusdt-d_svg__f"><path d="m6.32 0 2.224 2.21-4.75 4.724 4.75 4.724-2.224 2.21L.46 8.04a1.558 1.558 0 0 1 0-2.21L6.32 0z"></path></clipPath><clipPath id="uusdt-d_svg__g"><path d="M5.86.458a1.58 1.58 0 0 1 2.224 0l5.86 5.829-2.223 2.21-4.749-4.723-4.748 4.723L0 6.287z"></path></clipPath><clipPath id="uusdt-d_svg__h"><path d="m2.224 0 5.86 5.829a1.56 1.56 0 0 1 0 2.21l-5.86 5.83L0 11.657l4.75-4.724L0 2.211 2.224 0z"></path></clipPath></defs><g clip-path="url(#uusdt-d_svg__a)" transform="translate(-372 -8441)"><g clip-path="url(#uusdt-d_svg__b)" transform="translate(372 8441)"><path fill="#50AF95" d="M0 0h100v100H0V0z"></path></g><g clip-path="url(#uusdt-d_svg__c)" transform="translate(390.887 8466.945)"><path fill="#FFF" d="M0 0h62.221v57.313H0V0z"></path></g><g clip-path="url(#uusdt-d_svg__d)" transform="translate(441.963 8510.776)"><path d="M0 0h30.032v30.032H0V0z"></path></g><g clip-path="url(#uusdt-d_svg__e)" transform="translate(450.008 8516.245)"><path fill="#FFF" d="M0 0h13.947v8.497H0V0z"></path></g><g clip-path="url(#uusdt-d_svg__f)" transform="translate(458.035 8518.853)"><path fill="#FFF" d="M0 0h8.544v13.868H0V0z"></path></g><g clip-path="url(#uusdt-d_svg__g)" transform="translate(450.003 8526.842)"><path fill="#FFF" d="M0 0h13.945v8.497H0V0z"></path></g><g clip-path="url(#uusdt-d_svg__h)" transform="translate(447.379 8518.863)"><path fill="#FFF" d="M0 0h8.545v13.868H0V0z"></path></g></g></svg>