<svg viewBox="0 0 351 351" xmlns="http://www.w3.org/2000/svg" class="order-2 md:order-1 md:flex-1"><defs><clipPath id="axelar-logo-smaller_svg__a"><path d="M1920 0v11288H0V0h1920z"></path></clipPath><clipPath id="axelar-logo-smaller_svg__b"><path d="M351 0v351H0V0h351z"></path></clipPath><clipPath id="axelar-logo-smaller_svg__c"><path d="M252.75 0v60H0V0h252.75z"></path></clipPath><clipPath id="axelar-logo-smaller_svg__d"><path d="M69.93 34.737a4.913 4.913 0 0 1 6.949 0l.02.02.06.06.061.062.575.575.354.354.1.1.325.324 4.257 4.258.46.46.237.237 1.513 1.512.816.816 3.333 3.333 1.002 1.002.69.69.707.708.726.725 3.079 3.08L88.245 60l-14.84-14.84L58.564 60l-6.948-6.948 3.444-3.443 1.758-1.759 2.276-2.276.909-.909 2.488-2.488.75-.75 2.211-2.211.39-.39.895-.895.327-.327.458-.458.283-.283 1.692-1.692.115-.115zM228.774 2.41c6.718 0 11.745 1.324 15.082 3.97 4.239 3.383 6.36 8.195 6.36 14.435 0 6.672-2.847 11.283-8.542 13.832l11.079 22.943h-16.117l-7.123-19.022-.063-.168-.174-.465a14.067 14.067 0 0 0-.378-1.323c-.178-.547-.398-1.202-.66-1.965v.021l.107 3.624V57.59h-14.831V2.41h15.26zm-30.164 0 11.686 55.18h-15.401l-1.11-7.004h-10.041l-1.216 7.004h-15.402l13.258-55.18h18.226zm-167.125 0L43.17 57.59H27.768l-1.109-7.004H16.618l-1.216 7.004H0L13.258 2.41h18.226zm121.865 0v41.923h11.185V57.59h-26.088V2.41h14.903zm-18.125 0v12.976H122.43v8.04h11.471v12.471H122.43v8.436h12.794V57.59h-27.697V2.41h27.697zM50.366 8.225l.796.796 5.407 5.408 1.274 1.274.91.909 1.15 1.15 2.565 2.565.46.46.657.657L65.142 23l.345.345.327.328.31.31.566.565.495.496.325.325.1.1.354.353.219.22.23.23.126.125.062.062.08.08a4.913 4.913 0 0 1 0 6.948L50.364 51.802l-6.947-6.948 14.84-14.841-14.84-14.841 6.947-6.948zm46.104-.026 6.948 6.948-14.841 14.841 14.841 14.841-6.948 6.948-.4-.4-.788-.788-.77-.77-1.486-1.485-1.068-1.069-.69-.69-5.151-5.15-1.026-1.027-.246-.245-1.805-1.805-2.019-2.02-.458-.457-1.338-1.338-.637-.637-.115-.115-.283-.283-.035-.036a4.913 4.913 0 0 1 0-6.948l.268-.267.23-.23.218-.22.169-.167.185-.186.204-.204.46-.46.823-.822.47-.471 2.069-2.068 1.84-1.84 2.123-2.124 2.727-2.727 2.725-2.724 1.094-1.095 1.135-1.135.779-.778.796-.797zm92.775 7.401c-.047.501-.113 1.06-.196 1.68-.084.62-.173 1.298-.268 2.038a334.116 334.116 0 0 1-.357 3.072c-.072.57-.119.917-.141 1.037l-1.038 6.68-1.502 8.65h6.292l-.966-6.432c-.025-.024-.072-.346-.144-.967-.045-.521-.297-2.595-.75-6.216-.048-.405-.105-.959-.178-1.662-.072-.703-.167-1.592-.285-2.664l-.467-5.216zm-167.126 0c-.046.501-.111 1.06-.195 1.68-.083.62-.173 1.298-.268 2.037a302.948 302.948 0 0 1-.357 3.073c-.073.57-.119.917-.142 1.037l-1.037 6.68-1.502 8.65h6.291l-.965-6.432c-.026-.024-.072-.346-.144-.967l-.012-.13c-.07-.685-.316-2.715-.738-6.086-.048-.405-.107-.96-.178-1.662-.072-.703-.167-1.592-.286-2.664l-.467-5.216zm206.832-.786h-.536v13.15h1.001c1.715 0 3.144-.654 4.288-1.966 1.144-1.308 1.715-2.977 1.715-5.003 0-4.12-2.156-6.181-6.468-6.181zM88.271 0l6.948 6.948-18.315 18.315a4.897 4.897 0 0 1-3.474 1.439 4.897 4.897 0 0 1-3.474-1.44l-.02-.02-.06-.059-.061-.062-.575-.575-.354-.354-.1-.1-.325-.324-4.257-4.258-.46-.46-.237-.237-.486-.486-.505-.504-.522-.522-.816-.816-3.333-3.333-1.002-1.002-.69-.69-.707-.708-.726-.725-3.078-3.08L58.589 0 73.43 14.84 88.271 0z"></path></clipPath></defs><g clip-path="url(#axelar-logo-smaller_svg__a)" transform="translate(-244 -1761)"><g clip-path="url(#axelar-logo-smaller_svg__b)" transform="translate(244 1761)"><path fill="#F7F7F7" d="M0 0h351v351H0V0z"></path></g><g clip-path="url(#axelar-logo-smaller_svg__c)" transform="translate(293 1907)"><g clip-path="url(#axelar-logo-smaller_svg__d)"><path d="M0 0h252.75v60H0V0z"></path></g></g></g></svg>