<?xml version="1.0" encoding="UTF-8" standalone="no"?>
<!DOCTYPE svg PUBLIC "-//W3C//DTD SVG 1.1//EN" "http://www.w3.org/Graphics/SVG/1.1/DTD/svg11.dtd">
<!-- Created with Vectornator (http://vectornator.io/) -->
<svg height="100%" stroke-miterlimit="10" style="fill-rule:nonzero;clip-rule:evenodd;stroke-linecap:round;stroke-linejoin:round;" version="1.1" viewBox="0 0 200 200" width="100%" xml:space="preserve" xmlns="http://www.w3.org/2000/svg" xmlns:xlink="http://www.w3.org/1999/xlink">
<defs/>
<clipPath id="ArtboardFrame">
<rect height="200" width="200" x="0" y="0"/>
</clipPath>
<g clip-path="url(#ArtboardFrame)" id="Layer-1">
<clipPath clip-rule="nonzero" id="ClipPath">
<path d="M843.815-7946.11L843.815 3341.89L-1076.19 3341.89L-1076.19-7946.11L843.815-7946.11Z"/>
</clipPath>
<g clip-path="url(#ClipPath)">
<g opacity="1">
<clipPath clip-rule="nonzero" id="ClipPath_2">
<path d="M99.9701 0.0266029C155.386 0.0266029 199.97 44.6106 199.97 100.027C199.97 155.443 155.386 200.027 99.9701 200.027C44.5541 200.027-0.0299283 155.443-0.0299283 100.027C-0.0299283 44.6106 44.5541 0.0266029 99.9701 0.0266029Z"/>
</clipPath>
<g clip-path="url(#ClipPath_2)">
<path d="M-0.0299283 0.0266029L199.97 0.0266029L199.97 200.027L-0.0299283 200.027L-0.0299283 0.0266029Z" fill="#2675ca" fill-rule="nonzero" opacity="1" stroke="none"/>
</g>
</g>
<g opacity="1">
<clipPath clip-rule="nonzero" id="ClipPath_3">
<path d="M102.892 50.8625C104.972 51.2785 106.222 52.5265 106.222 54.1945L106.222 64.1945C115.802 65.0305 123.302 72.1105 124.97 81.2785L124.97 81.6945C124.97 83.3565 123.722 84.6105 122.054 84.6105L115.386 84.6105C114.138 84.6105 112.886 83.7785 112.47 82.5265C110.39 76.2725 106.222 73.7725 98.7221 73.7725C90.3921 73.7725 86.2221 77.5265 86.2221 83.3565C86.2221 89.1885 88.7221 92.5205 101.222 94.1885C118.718 96.2725 127.47 101.273 127.47 115.857L127.468 116.443C127.182 127.409 118.924 135.889 106.644 137.937L106.644 147.937C106.228 150.017 104.98 151.269 103.312 151.269L97.0601 151.269C94.9801 150.853 93.7281 149.605 93.7281 147.937L93.7281 137.937C79.9761 135.853 73.3121 128.353 71.6441 117.937L71.6441 117.521C71.6441 115.857 72.8921 114.605 74.5601 114.605L81.6441 114.605C82.8921 114.605 84.1441 115.437 84.5601 117.105C85.8081 123.353 89.5601 127.937 100.392 127.937C108.308 127.937 114.138 123.353 114.138 116.689C114.138 110.027 110.392 107.527 98.7221 105.441C81.2241 103.363 72.8921 97.9425 72.8921 84.1945C72.8921 73.7785 80.8081 65.4465 93.3081 63.7785L93.3081 54.1945C93.7221 52.1105 94.9701 50.8625 96.6381 50.8625L102.892 50.8625Z"/>
</clipPath>
<g clip-path="url(#ClipPath_3)">
<path d="M71.6441 50.8625L127.476 50.8625L127.476 151.269L71.6441 151.269L71.6441 50.8625Z" fill="#ffffff" fill-rule="nonzero" opacity="1" stroke="none"/>
</g>
</g>
<g opacity="1">
<clipPath clip-rule="nonzero" id="ClipPath_4">
<path d="M119.134 31.2786C119.554 29.6106 121.218 28.7786 122.886 29.6106C145.802 37.1106 164.134 55.0306 171.634 78.7786C184.134 118.363 162.47 160.447 122.886 172.947C122.47 173.363 121.634 173.363 121.218 173.363C119.55 172.947 118.718 171.701 118.718 170.031L118.718 164.201C118.718 162.117 119.55 160.863 121.218 160.031C138.302 153.779 152.05 140.447 158.302 122.947C170.386 90.8626 153.718 54.6166 121.218 42.9466C119.97 42.1106 118.718 40.4466 118.718 38.7786L118.718 32.6826C118.724 32.0186 118.764 31.6486 119.134 31.2786ZM78.724 29.1946C80.392 29.6106 81.224 30.8586 81.224 32.5266L81.224 38.3586C81.224 40.4426 80.392 41.6946 78.724 42.5266C61.64 48.7786 47.892 62.1106 41.64 79.6106C29.554 111.695 46.224 147.943 78.724 159.611C79.97 160.443 81.218 162.105 81.218 163.359L81.218 169.189C81.218 170.027 81.218 170.443 80.802 170.859C80.382 172.527 78.718 173.359 77.05 172.527C53.718 165.027 35.802 147.111 28.302 123.779C15.802 84.1946 37.47 42.1106 77.054 29.6106C77.47 29.1946 78.308 29.1946 78.726 29.1946L78.724 29.1946Z"/>
</clipPath>
<g clip-path="url(#ClipPath_4)">
<path d="M24.766 29.1946L175.17 29.1946L175.17 173.363L24.766 173.363L24.766 29.1946Z" fill="#ffffff" fill-rule="nonzero" opacity="1" stroke="none"/>
</g>
</g>
<g opacity="1">
<g opacity="1">
<clipPath clip-rule="nonzero" id="ClipPath_5">
<path d="M150 100C177.614 100 200 122.386 200 150C200 177.614 177.614 200 150 200C122.386 200 100 177.614 100 150C100 122.386 122.386 100 150 100Z"/>
</clipPath>
<g clip-path="url(#ClipPath_5)">
<path d="M100 100L200 100L200 200L100 200L100 100Z" fill="#000000" fill-rule="nonzero" opacity="1" stroke="none"/>
</g>
</g>
<g opacity="1">
<clipPath clip-rule="nonzero" id="ClipPath_6">
<path d="M165.827 118.211L173.229 125.57L153.716 144.983C152.684 145.998 151.332 146.505 150 146.505C148.668 146.505 147.326 145.998 146.304 144.979L126.788 125.574L134.194 118.211L150.01 133.941L165.827 118.211Z"/>
</clipPath>
<g clip-path="url(#ClipPath_6)">
<path d="M126.788 118.211L173.229 118.211L173.229 146.505L126.788 146.505L126.788 118.211Z" fill="#ffffff" fill-rule="nonzero" opacity="1" stroke="none"/>
</g>
</g>
<g opacity="1">
<clipPath clip-rule="nonzero" id="ClipPath_7">
<path d="M174.561 126.895L181.966 134.254L166.15 149.984L181.966 165.714L174.561 173.073L155.048 153.667C154.068 152.693 153.517 151.369 153.517 149.987C153.517 148.606 154.068 147.282 155.048 146.308L174.561 126.895Z"/>
</clipPath>
<g clip-path="url(#ClipPath_7)">
<path d="M153.516 126.895L181.966 126.895L181.966 173.073L153.516 173.073L153.516 126.895Z" fill="#ffffff" fill-rule="nonzero" opacity="1" stroke="none"/>
</g>
</g>
<g opacity="1">
<clipPath clip-rule="nonzero" id="ClipPath_8">
<path d="M146.284 155.021C148.335 152.99 151.639 152.99 153.69 155.021L173.202 174.43L165.8 181.789L149.987 166.063L134.177 181.789L126.772 174.43L146.284 155.021Z"/>
</clipPath>
<g clip-path="url(#ClipPath_8)">
<path d="M126.772 153.496L173.205 153.496L173.205 181.789L126.772 181.789L126.772 153.496Z" fill="#ffffff" fill-rule="nonzero" opacity="1" stroke="none"/>
</g>
</g>
<g opacity="1">
<clipPath clip-rule="nonzero" id="ClipPath_9">
<path d="M125.44 126.928L144.952 146.337C145.93 147.312 146.48 148.636 146.48 150.016C146.48 151.397 145.93 152.721 144.952 153.696L125.44 173.108L118.034 165.743L133.851 150.013L118.034 134.29L125.44 126.928Z"/>
</clipPath>
<g clip-path="url(#ClipPath_9)">
<path d="M118.034 126.928L146.487 126.928L146.487 173.105L118.034 173.105L118.034 126.928Z" fill="#ffffff" fill-rule="nonzero" opacity="1" stroke="none"/>
</g>
</g>
</g>
</g>
</g>
</svg>
