<?xml version="1.0" encoding="utf-8"?>
<!-- Generator: Adobe Illustrator 27.8.1, SVG Export Plug-In . SVG Version: 6.00 Build 0)  -->
<svg version="1.1" id="Layer_1" xmlns="http://www.w3.org/2000/svg" xmlns:xlink="http://www.w3.org/1999/xlink" x="0px" y="0px"
	 viewBox="0 0 1080 1080" style="enable-background:new 0 0 1080 1080;" xml:space="preserve">
<style type="text/css">
	
		.st0{clip-path:url(#SVGID_00000153682778159051457900000009676280886214110633_);fill:url(#SVGID_00000091720538474909461390000002942863066448716971_);}
	
		.st1{clip-path:url(#SVGID_00000166653028678685400960000016701538229012001200_);fill:url(#SVGID_00000010291050675466414040000004976912505421055119_);}
	
		.st2{clip-path:url(#SVGID_00000062165262666046038350000018236668600192980638_);fill:url(#SVGID_00000013175288072368336960000002273694233244758914_);}
	
		.st3{clip-path:url(#SVGID_00000145777347374134824080000013638522951958723000_);fill:url(#SVGID_00000154405380354595125150000018298620338202966928_);}
	
		.st4{clip-path:url(#SVGID_00000078747083312093444320000000590094850455841933_);fill:url(#SVGID_00000062899665063024079700000018305488313044388783_);}
	
		.st5{clip-path:url(#SVGID_00000127722353297986201680000017613817076768839575_);fill:url(#SVGID_00000066513574184876380380000006324746642700162715_);}
	
		.st6{clip-path:url(#SVGID_00000126316249085266772570000011869973233715335321_);fill:url(#SVGID_00000181048175554261166520000003790527257492118702_);}
	
		.st7{clip-path:url(#SVGID_00000072974032171232311470000006366484612765597336_);fill:url(#SVGID_00000016034684918393844910000001837947624055364271_);}
</style>
<g>
	<path d="M1076.8,540c0,295.6-240.3,535.2-536.8,535.2S3.2,835.6,3.2,540S243.5,4.8,540,4.8C836.3,4.8,1076.8,244.4,1076.8,540"/>
	<g>
		<g>
			<defs>
				<path id="SVGID_1_" d="M73.8,667C62,618.5,55.9,578.4,55.9,539.8C55.9,273,273.7,55.4,541.8,55.4
					c206.1,0,388.6,131.5,453.9,326.8c19.3,53.3,28.3,105.1,28.3,157.6c0,267.6-216.2,484.4-482.2,484.4
					C323.5,1024.3,130.8,877.2,73.8,667 M0,539.8c0,42.8,6.1,87.9,19.6,141.4c64,235,278.8,398.8,522.1,398.8
					c296.7,0,538.2-242,538.2-540.2c0-59.1-10.5-116.7-31.5-175.8C975.9,146.3,772,0,541.8,0C243,0,0,242.5,0,539.8"/>
			</defs>
			<clipPath id="SVGID_00000140718765673325991650000001787124362274157476_">
				<use xlink:href="#SVGID_1_"  style="overflow:visible;"/>
			</clipPath>
			
				<linearGradient id="SVGID_00000076599544672073496570000009544682448495222161_" gradientUnits="userSpaceOnUse" x1="-418.6227" y1="-4.219056e-02" x2="-417.026" y2="-4.219056e-02" gradientTransform="matrix(676.3852 0 0 676.3852 283150.2188 568.6167)">
				<stop  offset="0" style="stop-color:#0056D4"/>
				<stop  offset="1" style="stop-color:#2EFFEF"/>
			</linearGradient>
			
				<rect style="clip-path:url(#SVGID_00000140718765673325991650000001787124362274157476_);fill:url(#SVGID_00000076599544672073496570000009544682448495222161_);" width="1080" height="1080.2"/>
		</g>
	</g>
	<g>
		<g>
			<defs>
				<path id="SVGID_00000162348850718472292730000009634444731100866459_" d="M604.2,592.2c-2.6,32.5-11.2,44.1-11.2,44.1
					c-29.4,46-93.7,60.2-93.7,60.2h117.5c90.7,0.5,110-72.3,110-72.3V541"/>
			</defs>
			<clipPath id="SVGID_00000078041438304641871380000002795346676439454890_">
				<use xlink:href="#SVGID_00000162348850718472292730000009634444731100866459_"  style="overflow:visible;"/>
			</clipPath>
			
				<linearGradient id="SVGID_00000153682053605195472750000001879707959782171535_" gradientUnits="userSpaceOnUse" x1="-419.3299" y1="-5.9424" x2="-417.7338" y2="-5.9424" gradientTransform="matrix(-2.3687 81.2971 -81.2971 -2.3687 -862.0979 34658.7656)">
				<stop  offset="0" style="stop-color:#0059DE"/>
				<stop  offset="0.1735" style="stop-color:#0A7FE2"/>
				<stop  offset="0.4523" style="stop-color:#1AB6E7"/>
				<stop  offset="0.6931" style="stop-color:#25DDEC"/>
				<stop  offset="0.8836" style="stop-color:#2BF6EE"/>
				<stop  offset="1" style="stop-color:#2EFFEF"/>
			</linearGradient>
			
				<polygon style="clip-path:url(#SVGID_00000078041438304641871380000002795346676439454890_);fill:url(#SVGID_00000153682053605195472750000001879707959782171535_);" points="
				731.4,541.1 726.8,703.5 495,696.8 499.6,534.4 			"/>
		</g>
	</g>
	<g>
		<g>
			<defs>
				<path id="SVGID_00000008134030973699773310000015272310113882632123_" d="M441.6,295.6c-48.9,0-88.6,36.1-88.6,80.7v93.4
					c0-44.6,39.6-80.6,88.6-80.6h23h4.9h53.2l107.1-0.3c56.5,0,102.2-41.7,102.2-93.1H441.6V295.6z"/>
			</defs>
			<clipPath id="SVGID_00000022520104045386124460000002035044407687072698_">
				<use xlink:href="#SVGID_00000008134030973699773310000015272310113882632123_"  style="overflow:visible;"/>
			</clipPath>
			
				<linearGradient id="SVGID_00000141415884022872050170000001610448149784807041_" gradientUnits="userSpaceOnUse" x1="-417.3689" y1="-0.3668" x2="-415.7722" y2="-0.3668" gradientTransform="matrix(237.4037 0 0 237.4037 99438.1094 469.799)">
				<stop  offset="0" style="stop-color:#0182E5"/>
				<stop  offset="1" style="stop-color:#00EBF4"/>
			</linearGradient>
			
				<rect x="353.2" y="295.6" style="clip-path:url(#SVGID_00000022520104045386124460000002035044407687072698_);fill:url(#SVGID_00000141415884022872050170000001610448149784807041_);" width="379.1" height="174.2"/>
		</g>
	</g>
	<g>
		<g>
			<defs>
				<path id="SVGID_00000062914808036908355260000008069904726663421871_" d="M719.3,641.6c-2.2,3.8-4.6,7.6-7.3,11.3
					c-16.4,22.4-45.5,36.9-68.5,41.1c-1.6,0.3-3.7,0.6-5.3,0.8l-7.2,0.8l-20.8,0.5H450.1c-56.5,0-102.2,41.7-102.2,93.1h290.4
					c48.9,0,88.6-36.1,88.6-80.7V615C727,624.7,723.9,633.4,719.3,641.6"/>
			</defs>
			<clipPath id="SVGID_00000135661050272587931280000011632107675879444917_">
				<use xlink:href="#SVGID_00000062914808036908355260000008069904726663421871_"  style="overflow:visible;"/>
			</clipPath>
			
				<linearGradient id="SVGID_00000134208535148323899420000007123840321988616327_" gradientUnits="userSpaceOnUse" x1="-417.4534" y1="-0.1407" x2="-415.8567" y2="-0.1407" gradientTransform="matrix(237.4012 -1.0941 -1.0941 -237.4012 99403.8047 213.1799)">
				<stop  offset="0" style="stop-color:#0280E6"/>
				<stop  offset="1" style="stop-color:#00E6F0"/>
			</linearGradient>
			
				<polygon style="clip-path:url(#SVGID_00000135661050272587931280000011632107675879444917_);fill:url(#SVGID_00000134208535148323899420000007123840321988616327_);" points="
				347.9,791.1 727.8,789.3 727,613.4 347.1,615.1 			"/>
		</g>
	</g>
	<g>
		<g>
			<defs>
				<path id="SVGID_00000173152351194189132990000017140548223292511668_" d="M435.7,388.8c0,0-20.6,0.5-40.2,10.2
					c-15.8,7.8-30.2,21.7-38.8,44.4c0,0,7.2,23.1,34.3,38c10.2,5.7,23.3,8.9,39.6,11.3c5.3,0.8,10.4,0.8,15.6,0.6c1.6,0,3.2,0,4.9,0
					c1,0,15.6,0,21.7,0c0,0-4.9-80.9,97.1-99.5l32.7-5.6L435.7,388.8z"/>
			</defs>
			<clipPath id="SVGID_00000028283181107040278570000000484444312359494580_">
				<use xlink:href="#SVGID_00000173152351194189132990000017140548223292511668_"  style="overflow:visible;"/>
			</clipPath>
			
				<linearGradient id="SVGID_00000051373031267631409800000015463065998168972964_" gradientUnits="userSpaceOnUse" x1="-419.498" y1="-2.8743" x2="-417.8901" y2="-2.8743" gradientTransform="matrix(0.417 151.1965 -151.1965 0.417 219.9928 63839.5117)">
				<stop  offset="0" style="stop-color:#00EEEE"/>
				<stop  offset="2.994496e-02" style="stop-color:#00E0ED"/>
				<stop  offset="9.948009e-02" style="stop-color:#00C5EB"/>
				<stop  offset="0.1795" style="stop-color:#00AFE9"/>
				<stop  offset="0.2728" style="stop-color:#009EE8"/>
				<stop  offset="0.3883" style="stop-color:#0093E7"/>
				<stop  offset="0.5503" style="stop-color:#008CE6"/>
				<stop  offset="1" style="stop-color:#008AE6"/>
			</linearGradient>
			
				<polygon style="clip-path:url(#SVGID_00000028283181107040278570000000484444312359494580_);fill:url(#SVGID_00000051373031267631409800000015463065998168972964_);" points="
				602.7,387.6 603.1,493.5 356.7,494.2 356.4,388.3 			"/>
		</g>
	</g>
	<g>
		<g>
			<defs>
				<path id="SVGID_00000010284346912047230610000003923523335625670828_" d="M353.2,512c0,44.6,39.6,80.7,88.6,80.7h92.1h70.6h24.7
					c0.6,0,1.4,0,2.2,0c35-0.2,68.2-16.1,89.9-43.5c4.5-5.7,5.6-8.3,5.6-8.3c-16.9-31.4-54.1-47.6-102.2-48.2h-40.4l-134.3,0.2H445
					c-48.9,0-91.8-29.8-91.8-74.3L353.2,512L353.2,512z"/>
			</defs>
			<clipPath id="SVGID_00000104690389890470902380000003517400377554863550_">
				<use xlink:href="#SVGID_00000010284346912047230610000003923523335625670828_"  style="overflow:visible;"/>
			</clipPath>
			
				<linearGradient id="SVGID_00000167390446331176786710000014740656264298406046_" gradientUnits="userSpaceOnUse" x1="-417.3461" y1="-0.1766" x2="-415.7497" y2="-0.1766" gradientTransform="matrix(234.1331 0 0 234.1331 98067.7344 546.9681)">
				<stop  offset="0" style="stop-color:#0182E5"/>
				<stop  offset="1" style="stop-color:#2EFFEF"/>
			</linearGradient>
			
				<rect x="353.2" y="418.5" style="clip-path:url(#SVGID_00000104690389890470902380000003517400377554863550_);fill:url(#SVGID_00000167390446331176786710000014740656264298406046_);" width="373.8" height="174.2"/>
		</g>
	</g>
	<g>
		<g>
			<defs>
				<path id="SVGID_00000053516550987268466710000008105330204966717371_" d="M128.9,523.6c-0.2,20.9,20,21.2,20,21.2
					c15.5-0.2,15.2-10.5,15.2-10.5C190.8,143,557.4,164.1,557.4,164.1c29.7,0.5,29.2-17.5,29.2-17.5c1.6-10.7-5.7-16.1-12.5-18.9
					c-4.6-1.9-9.6-2.7-14.5-2.5c-4.5,0.2-8.9,0.3-13.4,0.5C130.4,143.6,128.9,523.6,128.9,523.6"/>
			</defs>
			<clipPath id="SVGID_00000126323195433337599120000013251039084572433024_">
				<use xlink:href="#SVGID_00000053516550987268466710000008105330204966717371_"  style="overflow:visible;"/>
			</clipPath>
			
				<linearGradient id="SVGID_00000000215954488121466070000005145642114439638198_" gradientUnits="userSpaceOnUse" x1="-418.4543" y1="-0.2416" x2="-416.8577" y2="-0.2416" gradientTransform="matrix(549.163 9.268 -7.7568 563.8433 229924.625 4345.5659)">
				<stop  offset="0" style="stop-color:#005BDD"/>
				<stop  offset="0.1828" style="stop-color:#007EE1"/>
				<stop  offset="0.8705" style="stop-color:#00FFF0"/>
				<stop  offset="1" style="stop-color:#00FFF0"/>
			</linearGradient>
			
				<polygon style="clip-path:url(#SVGID_00000126323195433337599120000013251039084572433024_);fill:url(#SVGID_00000000215954488121466070000005145642114439638198_);" points="
				111.6,115.7 610.7,124.2 604.8,554.2 105.7,545.9 			"/>
		</g>
	</g>
	<g>
		<g>
			<defs>
				<path id="SVGID_00000127015860719405723200000008062418845865994418_" d="M921,535.4c-19,391.8-386.4,379.2-386.4,379.2
					c-29.7,0.2-28.9,18.1-28.9,18.1c-1.4,10.7,6.1,15.9,12.8,18.6c4.6,1.8,9.6,2.5,14.5,2.2c429.5-20.2,423.3-408.3,423.3-408.3
					c-0.3-20.9-20.3-20.7-20.3-20.7C920.5,525,921,535.4,921,535.4"/>
			</defs>
			<clipPath id="SVGID_00000105399722880928403740000006255470381497866396_">
				<use xlink:href="#SVGID_00000127015860719405723200000008062418845865994418_"  style="overflow:visible;"/>
			</clipPath>
			
				<linearGradient id="SVGID_00000054971662287225306450000017825874740181742746_" gradientUnits="userSpaceOnUse" x1="-418.5478" y1="4.448573e-02" x2="-416.9511" y2="4.448573e-02" gradientTransform="matrix(614.814 -3.757 4.0836 630.3635 257394.8906 -857.2279)">
				<stop  offset="0" style="stop-color:#005DDD"/>
				<stop  offset="0.1182" style="stop-color:#0265DE"/>
				<stop  offset="0.3" style="stop-color:#087AE0"/>
				<stop  offset="0.5226" style="stop-color:#129DE4"/>
				<stop  offset="0.7751" style="stop-color:#20CEEA"/>
				<stop  offset="1" style="stop-color:#2EFFEF"/>
			</linearGradient>
			
				<polygon style="clip-path:url(#SVGID_00000105399722880928403740000006255470381497866396_);fill:url(#SVGID_00000054971662287225306450000017825874740181742746_);" points="
				498.6,527.1 960.1,524.2 962.8,951.4 501.4,954.2 			"/>
		</g>
	</g>
</g>
</svg>
