<?xml version="1.0" encoding="UTF-8" standalone="no"?>
<!DOCTYPE svg PUBLIC "-//W3C//DTD SVG 1.1//EN" "http://www.w3.org/Graphics/SVG/1.1/DTD/svg11.dtd">
<!-- Created with Vectornator (http://vectornator.io/) -->
<svg height="100%" stroke-miterlimit="10" style="fill-rule:nonzero;clip-rule:evenodd;stroke-linecap:round;stroke-linejoin:round;" version="1.1" viewBox="0 0 98 98" width="100%" xml:space="preserve" xmlns="http://www.w3.org/2000/svg" xmlns:xlink="http://www.w3.org/1999/xlink">
<defs>
<linearGradient gradientTransform="matrix(1.00427 0 0 1.00427 -0.209214 -0.209214)" gradientUnits="userSpaceOnUse" id="LinearGradient" x1="0.208324" x2="97.7917" y1="49" y2="49">
<stop offset="0" stop-color="#0056d4"/>
<stop offset="1" stop-color="#2effef"/>
</linearGradient>
</defs>
<clipPath id="ArtboardFrame">
<rect height="98" width="98" x="0" y="0"/>
</clipPath>
<g clip-path="url(#ArtboardFrame)" id="veEQUAL">
<path d="M-4.44089e-14 49C-4.44089e-14 21.938 21.938 2.67021e-15 49 2.67021e-15C76.062 2.67021e-15 98 21.938 98 49C98 76.062 76.062 98 49 98C21.938 98-4.44089e-14 76.062-4.44089e-14 49Z" fill="url(#LinearGradient)" fill-rule="nonzero" opacity="1" stroke="none"/>
<path d="M49 4.5C24.4265 4.49999 4.5 24.4265 4.5 49C4.49999 73.5735 24.4265 93.5 49 93.5C73.5735 93.5 93.5 73.5735 93.5 49C93.5 24.4265 73.5735 4.5 49 4.5ZM27.3438 34.5625L70.6562 34.5625C72.0998 34.5625 73.0625 35.5252 73.0625 36.9688L73.0625 41.7812C73.0625 43.2248 72.0998 44.1875 70.6562 44.1875L27.3438 44.1875C25.9002 44.1875 24.9375 43.2248 24.9375 41.7812L24.9375 36.9688C24.9375 35.5252 25.9002 34.5625 27.3438 34.5625ZM27.3438 53.8125L70.6562 53.8125C72.0998 53.8125 73.0625 54.7752 73.0625 56.2188L73.0625 61.0312C73.0625 62.4748 72.0998 63.4375 70.6562 63.4375L27.3438 63.4375C25.9002 63.4375 24.9375 62.4748 24.9375 61.0312L24.9375 56.2188C24.9375 54.7752 25.9002 53.8125 27.3438 53.8125Z" fill="#000000" fill-rule="nonzero" opacity="1" stroke="none"/>
<g opacity="1">
<path d="M48 73C48 59.1951 59.1951 48 73 48C86.8049 48 98 59.1951 98 73C98 86.8049 86.8049 98 73 98C59.1951 98 48 86.8049 48 73Z" fill="#e6e6e6" fill-rule="nonzero" opacity="1" stroke="none"/>
<path d="M73.0265 57.243C67.5985 57.243 63.1947 61.6468 63.1947 67.0748L63.1947 71.3902L60.7033 71.3902L60.7033 87.4948L85.3497 87.4948L85.3497 71.3902L82.8584 71.3902L82.8584 67.0748C82.8584 61.6468 78.4545 57.243 73.0265 57.243ZM73.0265 59.7788C77.0472 59.7788 80.3225 63.0541 80.3225 67.0748L80.3225 71.3902L65.7305 71.3902L65.7305 67.0748C65.7305 63.0541 69.0058 59.7788 73.0265 59.7788ZM73.0265 75.7055C74.5078 75.7055 75.6958 76.8935 75.6958 78.3748C75.6958 79.3119 75.2302 80.1256 74.4946 80.5992C74.4946 81.0325 74.4946 81.5543 74.4946 81.7559C74.4946 82.562 73.8326 83.224 73.0265 83.224C72.2204 83.224 71.5584 82.562 71.5584 81.7559C71.5584 81.5443 71.5584 81.0224 71.5584 80.5992C70.8228 80.1256 70.3127 79.322 70.3127 78.3748C70.3127 76.8935 71.5452 75.7055 73.0265 75.7055Z" fill="#000000" fill-rule="nonzero" opacity="1" stroke="#000000" stroke-linecap="butt" stroke-linejoin="miter" stroke-width="1"/>
</g>
</g>
</svg>
